<?xml version="1.0" encoding="utf-8" standalone="no"?>
<!DOCTYPE svg PUBLIC "-//W3C//DTD SVG 1.1//EN"
  "http://www.w3.org/Graphics/SVG/1.1/DTD/svg11.dtd">
<!-- Created with matplotlib (https://matplotlib.org/) -->
<svg height="288pt" version="1.1" viewBox="0 0 432 288" width="432pt" xmlns="http://www.w3.org/2000/svg" xmlns:xlink="http://www.w3.org/1999/xlink">
 <defs>
  <style type="text/css">
*{stroke-linecap:butt;stroke-linejoin:round;}
  </style>
 </defs>
 <g id="figure_1">
  <g id="patch_1">
   <path d="M 0 288 
L 432 288 
L 432 0 
L 0 0 
z
" style="fill:#ffffff;"/>
  </g>
  <g id="axes_1">
   <g id="patch_2">
    <path d="M 54 252 
L 388.8 252 
L 388.8 28.8 
L 54 28.8 
z
" style="fill:#ffffff;"/>
   </g>
   <g id="matplotlib.axis_1">
    <g id="xtick_1">
     <g id="line2d_1">
      <path clip-path="url(#p5e0329bc3f)" d="M 54 252 
L 54 28.8 
" style="fill:none;stroke:#cccccc;stroke-linecap:round;stroke-width:0.5;"/>
     </g>
     <g id="line2d_2"/>
     <g id="line2d_3"/>
     <g id="text_1">
      <!-- 0 -->
      <defs>
       <path d="M 4.15625 35.296875 
Q 4.15625 48 6.765625 55.734375 
Q 9.375 63.484375 14.515625 67.671875 
Q 19.671875 71.875 27.484375 71.875 
Q 33.25 71.875 37.59375 69.546875 
Q 41.9375 67.234375 44.765625 62.859375 
Q 47.609375 58.5 49.21875 52.21875 
Q 50.828125 45.953125 50.828125 35.296875 
Q 50.828125 22.703125 48.234375 14.96875 
Q 45.65625 7.234375 40.5 3 
Q 35.359375 -1.21875 27.484375 -1.21875 
Q 17.140625 -1.21875 11.234375 6.203125 
Q 4.15625 15.140625 4.15625 35.296875 
z
M 13.1875 35.296875 
Q 13.1875 17.671875 17.3125 11.828125 
Q 21.4375 6 27.484375 6 
Q 33.546875 6 37.671875 11.859375 
Q 41.796875 17.71875 41.796875 35.296875 
Q 41.796875 52.984375 37.671875 58.78125 
Q 33.546875 64.59375 27.390625 64.59375 
Q 21.34375 64.59375 17.71875 59.46875 
Q 13.1875 52.9375 13.1875 35.296875 
z
" id="ArialMT-48"/>
      </defs>
      <g style="fill:#262626;" transform="translate(51.219531 263.157812)scale(0.1 -0.1)">
       <use xlink:href="#ArialMT-48"/>
      </g>
     </g>
    </g>
    <g id="xtick_2">
     <g id="line2d_4">
      <path clip-path="url(#p5e0329bc3f)" d="M 120.96 252 
L 120.96 28.8 
" style="fill:none;stroke:#cccccc;stroke-linecap:round;stroke-width:0.5;"/>
     </g>
     <g id="line2d_5"/>
     <g id="line2d_6"/>
     <g id="text_2">
      <!-- 2 -->
      <defs>
       <path d="M 50.34375 8.453125 
L 50.34375 0 
L 3.03125 0 
Q 2.9375 3.171875 4.046875 6.109375 
Q 5.859375 10.9375 9.828125 15.625 
Q 13.8125 20.3125 21.34375 26.46875 
Q 33.015625 36.03125 37.109375 41.625 
Q 41.21875 47.21875 41.21875 52.203125 
Q 41.21875 57.421875 37.46875 61 
Q 33.734375 64.59375 27.734375 64.59375 
Q 21.390625 64.59375 17.578125 60.78125 
Q 13.765625 56.984375 13.71875 50.25 
L 4.6875 51.171875 
Q 5.609375 61.28125 11.65625 66.578125 
Q 17.71875 71.875 27.9375 71.875 
Q 38.234375 71.875 44.234375 66.15625 
Q 50.25 60.453125 50.25 52 
Q 50.25 47.703125 48.484375 43.546875 
Q 46.734375 39.40625 42.65625 34.8125 
Q 38.578125 30.21875 29.109375 22.21875 
Q 21.1875 15.578125 18.9375 13.203125 
Q 16.703125 10.84375 15.234375 8.453125 
z
" id="ArialMT-50"/>
      </defs>
      <g style="fill:#262626;" transform="translate(118.179531 263.157812)scale(0.1 -0.1)">
       <use xlink:href="#ArialMT-50"/>
      </g>
     </g>
    </g>
    <g id="xtick_3">
     <g id="line2d_7">
      <path clip-path="url(#p5e0329bc3f)" d="M 187.92 252 
L 187.92 28.8 
" style="fill:none;stroke:#cccccc;stroke-linecap:round;stroke-width:0.5;"/>
     </g>
     <g id="line2d_8"/>
     <g id="line2d_9"/>
     <g id="text_3">
      <!-- 4 -->
      <defs>
       <path d="M 32.328125 0 
L 32.328125 17.140625 
L 1.265625 17.140625 
L 1.265625 25.203125 
L 33.9375 71.578125 
L 41.109375 71.578125 
L 41.109375 25.203125 
L 50.78125 25.203125 
L 50.78125 17.140625 
L 41.109375 17.140625 
L 41.109375 0 
z
M 32.328125 25.203125 
L 32.328125 57.46875 
L 9.90625 25.203125 
z
" id="ArialMT-52"/>
      </defs>
      <g style="fill:#262626;" transform="translate(185.139531 263.157812)scale(0.1 -0.1)">
       <use xlink:href="#ArialMT-52"/>
      </g>
     </g>
    </g>
    <g id="xtick_4">
     <g id="line2d_10">
      <path clip-path="url(#p5e0329bc3f)" d="M 254.88 252 
L 254.88 28.8 
" style="fill:none;stroke:#cccccc;stroke-linecap:round;stroke-width:0.5;"/>
     </g>
     <g id="line2d_11"/>
     <g id="line2d_12"/>
     <g id="text_4">
      <!-- 6 -->
      <defs>
       <path d="M 49.75 54.046875 
L 41.015625 53.375 
Q 39.84375 58.546875 37.703125 60.890625 
Q 34.125 64.65625 28.90625 64.65625 
Q 24.703125 64.65625 21.53125 62.3125 
Q 17.390625 59.28125 14.984375 53.46875 
Q 12.59375 47.65625 12.5 36.921875 
Q 15.671875 41.75 20.265625 44.09375 
Q 24.859375 46.4375 29.890625 46.4375 
Q 38.671875 46.4375 44.84375 39.96875 
Q 51.03125 33.5 51.03125 23.25 
Q 51.03125 16.5 48.125 10.71875 
Q 45.21875 4.9375 40.140625 1.859375 
Q 35.0625 -1.21875 28.609375 -1.21875 
Q 17.625 -1.21875 10.6875 6.859375 
Q 3.765625 14.9375 3.765625 33.5 
Q 3.765625 54.25 11.421875 63.671875 
Q 18.109375 71.875 29.4375 71.875 
Q 37.890625 71.875 43.28125 67.140625 
Q 48.6875 62.40625 49.75 54.046875 
z
M 13.875 23.1875 
Q 13.875 18.65625 15.796875 14.5 
Q 17.71875 10.359375 21.1875 8.171875 
Q 24.65625 6 28.46875 6 
Q 34.03125 6 38.03125 10.484375 
Q 42.046875 14.984375 42.046875 22.703125 
Q 42.046875 30.125 38.078125 34.390625 
Q 34.125 38.671875 28.125 38.671875 
Q 22.171875 38.671875 18.015625 34.390625 
Q 13.875 30.125 13.875 23.1875 
z
" id="ArialMT-54"/>
      </defs>
      <g style="fill:#262626;" transform="translate(252.099531 263.157812)scale(0.1 -0.1)">
       <use xlink:href="#ArialMT-54"/>
      </g>
     </g>
    </g>
    <g id="xtick_5">
     <g id="line2d_13">
      <path clip-path="url(#p5e0329bc3f)" d="M 321.84 252 
L 321.84 28.8 
" style="fill:none;stroke:#cccccc;stroke-linecap:round;stroke-width:0.5;"/>
     </g>
     <g id="line2d_14"/>
     <g id="line2d_15"/>
     <g id="text_5">
      <!-- 8 -->
      <defs>
       <path d="M 17.671875 38.8125 
Q 12.203125 40.828125 9.5625 44.53125 
Q 6.9375 48.25 6.9375 53.421875 
Q 6.9375 61.234375 12.546875 66.546875 
Q 18.171875 71.875 27.484375 71.875 
Q 36.859375 71.875 42.578125 66.421875 
Q 48.296875 60.984375 48.296875 53.171875 
Q 48.296875 48.1875 45.671875 44.5 
Q 43.0625 40.828125 37.75 38.8125 
Q 44.34375 36.671875 47.78125 31.875 
Q 51.21875 27.09375 51.21875 20.453125 
Q 51.21875 11.28125 44.71875 5.03125 
Q 38.234375 -1.21875 27.640625 -1.21875 
Q 17.046875 -1.21875 10.546875 5.046875 
Q 4.046875 11.328125 4.046875 20.703125 
Q 4.046875 27.6875 7.59375 32.390625 
Q 11.140625 37.109375 17.671875 38.8125 
z
M 15.921875 53.71875 
Q 15.921875 48.640625 19.1875 45.40625 
Q 22.46875 42.1875 27.6875 42.1875 
Q 32.765625 42.1875 36.015625 45.375 
Q 39.265625 48.578125 39.265625 53.21875 
Q 39.265625 58.0625 35.90625 61.359375 
Q 32.5625 64.65625 27.59375 64.65625 
Q 22.5625 64.65625 19.234375 61.421875 
Q 15.921875 58.203125 15.921875 53.71875 
z
M 13.09375 20.65625 
Q 13.09375 16.890625 14.875 13.375 
Q 16.65625 9.859375 20.171875 7.921875 
Q 23.6875 6 27.734375 6 
Q 34.03125 6 38.125 10.046875 
Q 42.234375 14.109375 42.234375 20.359375 
Q 42.234375 26.703125 38.015625 30.859375 
Q 33.796875 35.015625 27.4375 35.015625 
Q 21.234375 35.015625 17.15625 30.90625 
Q 13.09375 26.8125 13.09375 20.65625 
z
" id="ArialMT-56"/>
      </defs>
      <g style="fill:#262626;" transform="translate(319.059531 263.157812)scale(0.1 -0.1)">
       <use xlink:href="#ArialMT-56"/>
      </g>
     </g>
    </g>
    <g id="xtick_6">
     <g id="line2d_16">
      <path clip-path="url(#p5e0329bc3f)" d="M 388.8 252 
L 388.8 28.8 
" style="fill:none;stroke:#cccccc;stroke-linecap:round;stroke-width:0.5;"/>
     </g>
     <g id="line2d_17"/>
     <g id="line2d_18"/>
     <g id="text_6">
      <!-- 10 -->
      <defs>
       <path d="M 37.25 0 
L 28.46875 0 
L 28.46875 56 
Q 25.296875 52.984375 20.140625 49.953125 
Q 14.984375 46.921875 10.890625 45.40625 
L 10.890625 53.90625 
Q 18.265625 57.375 23.78125 62.296875 
Q 29.296875 67.234375 31.59375 71.875 
L 37.25 71.875 
z
" id="ArialMT-49"/>
      </defs>
      <g style="fill:#262626;" transform="translate(383.239063 263.157812)scale(0.1 -0.1)">
       <use xlink:href="#ArialMT-49"/>
       <use x="55.615234" xlink:href="#ArialMT-48"/>
      </g>
     </g>
    </g>
   </g>
   <g id="matplotlib.axis_2">
    <g id="ytick_1">
     <g id="line2d_19">
      <path clip-path="url(#p5e0329bc3f)" d="M 54 252 
L 388.8 252 
" style="fill:none;stroke:#cccccc;stroke-linecap:round;stroke-width:0.5;"/>
     </g>
     <g id="line2d_20"/>
     <g id="line2d_21"/>
     <g id="text_7">
      <!-- −1.0 -->
      <defs>
       <path d="M 52.828125 31.203125 
L 5.5625 31.203125 
L 5.5625 39.40625 
L 52.828125 39.40625 
z
" id="ArialMT-8722"/>
       <path d="M 9.078125 0 
L 9.078125 10.015625 
L 19.09375 10.015625 
L 19.09375 0 
z
" id="ArialMT-46"/>
      </defs>
      <g style="fill:#262626;" transform="translate(30.259375 254.585156)scale(0.1 -0.1)">
       <use xlink:href="#ArialMT-8722"/>
       <use x="58.398438" xlink:href="#ArialMT-49"/>
       <use x="114.013672" xlink:href="#ArialMT-46"/>
       <use x="141.796875" xlink:href="#ArialMT-48"/>
      </g>
     </g>
    </g>
    <g id="ytick_2">
     <g id="line2d_22">
      <path clip-path="url(#p5e0329bc3f)" d="M 54 196.2 
L 388.8 196.2 
" style="fill:none;stroke:#cccccc;stroke-linecap:round;stroke-width:0.5;"/>
     </g>
     <g id="line2d_23"/>
     <g id="line2d_24"/>
     <g id="text_8">
      <!-- −0.5 -->
      <defs>
       <path d="M 4.15625 18.75 
L 13.375 19.53125 
Q 14.40625 12.796875 18.140625 9.390625 
Q 21.875 6 27.15625 6 
Q 33.5 6 37.890625 10.78125 
Q 42.28125 15.578125 42.28125 23.484375 
Q 42.28125 31 38.0625 35.34375 
Q 33.84375 39.703125 27 39.703125 
Q 22.75 39.703125 19.328125 37.765625 
Q 15.921875 35.84375 13.96875 32.765625 
L 5.71875 33.84375 
L 12.640625 70.609375 
L 48.25 70.609375 
L 48.25 62.203125 
L 19.671875 62.203125 
L 15.828125 42.96875 
Q 22.265625 47.46875 29.34375 47.46875 
Q 38.71875 47.46875 45.15625 40.96875 
Q 51.609375 34.46875 51.609375 24.265625 
Q 51.609375 14.546875 45.953125 7.46875 
Q 39.0625 -1.21875 27.15625 -1.21875 
Q 17.390625 -1.21875 11.203125 4.25 
Q 5.03125 9.71875 4.15625 18.75 
z
" id="ArialMT-53"/>
      </defs>
      <g style="fill:#262626;" transform="translate(30.259375 198.785156)scale(0.1 -0.1)">
       <use xlink:href="#ArialMT-8722"/>
       <use x="58.398438" xlink:href="#ArialMT-48"/>
       <use x="114.013672" xlink:href="#ArialMT-46"/>
       <use x="141.796875" xlink:href="#ArialMT-53"/>
      </g>
     </g>
    </g>
    <g id="ytick_3">
     <g id="line2d_25">
      <path clip-path="url(#p5e0329bc3f)" d="M 54 140.4 
L 388.8 140.4 
" style="fill:none;stroke:#cccccc;stroke-linecap:round;stroke-width:0.5;"/>
     </g>
     <g id="line2d_26"/>
     <g id="line2d_27"/>
     <g id="text_9">
      <!-- 0.0 -->
      <g style="fill:#262626;" transform="translate(36.1 142.985156)scale(0.1 -0.1)">
       <use xlink:href="#ArialMT-48"/>
       <use x="55.615234" xlink:href="#ArialMT-46"/>
       <use x="83.398438" xlink:href="#ArialMT-48"/>
      </g>
     </g>
    </g>
    <g id="ytick_4">
     <g id="line2d_28">
      <path clip-path="url(#p5e0329bc3f)" d="M 54 84.6 
L 388.8 84.6 
" style="fill:none;stroke:#cccccc;stroke-linecap:round;stroke-width:0.5;"/>
     </g>
     <g id="line2d_29"/>
     <g id="line2d_30"/>
     <g id="text_10">
      <!-- 0.5 -->
      <g style="fill:#262626;" transform="translate(36.1 87.185156)scale(0.1 -0.1)">
       <use xlink:href="#ArialMT-48"/>
       <use x="55.615234" xlink:href="#ArialMT-46"/>
       <use x="83.398438" xlink:href="#ArialMT-53"/>
      </g>
     </g>
    </g>
    <g id="ytick_5">
     <g id="line2d_31">
      <path clip-path="url(#p5e0329bc3f)" d="M 54 28.8 
L 388.8 28.8 
" style="fill:none;stroke:#cccccc;stroke-linecap:round;stroke-width:0.5;"/>
     </g>
     <g id="line2d_32"/>
     <g id="line2d_33"/>
     <g id="text_11">
      <!-- 1.0 -->
      <g style="fill:#262626;" transform="translate(36.1 31.385156)scale(0.1 -0.1)">
       <use xlink:href="#ArialMT-49"/>
       <use x="55.615234" xlink:href="#ArialMT-46"/>
       <use x="83.398438" xlink:href="#ArialMT-48"/>
      </g>
     </g>
    </g>
   </g>
   <g id="line2d_34">
    <path clip-path="url(#p5e0329bc3f)" d="M 54 140.4 
L 57.381818 129.146432 
L 60.763636 118.007588 
L 64.145455 107.097019 
L 67.527273 96.525954 
L 70.909091 86.402157 
L 74.290909 76.828834 
L 77.672727 67.903578 
L 81.054545 59.717378 
L 84.436364 52.353686 
L 87.818182 45.887571 
L 91.2 40.38495 
L 94.581818 35.90192 
L 97.963636 32.484181 
L 101.345455 30.166576 
L 104.727273 28.972731 
L 108.109091 28.914817 
L 111.490909 29.993424 
L 114.872727 32.197556 
L 118.254545 35.504744 
L 121.636364 39.881272 
L 125.018182 45.282526 
L 128.4 51.653442 
L 131.781818 58.929073 
L 135.163636 67.035248 
L 138.545455 75.889332 
L 141.927273 85.40106 
L 145.309091 95.473468 
L 148.690909 106.003874 
L 152.072727 116.884926 
L 155.454545 128.0057 
L 158.836364 139.252826 
L 162.218182 150.511646 
L 165.6 161.667385 
L 168.981818 172.606316 
L 172.363636 183.216924 
L 175.745455 193.39104 
L 179.127273 203.024947 
L 182.509091 212.020431 
L 185.890909 220.285791 
L 189.272727 227.736765 
L 192.654545 234.297397 
L 196.036364 239.900803 
L 199.418182 244.489862 
L 202.8 248.01779 
L 206.181818 250.448623 
L 209.563636 251.75758 
L 212.945455 251.931317 
L 216.327273 250.968062 
L 219.709091 248.877636 
L 223.090909 245.681348 
L 226.472727 241.411784 
L 229.854545 236.112469 
L 233.236364 229.837425 
L 236.618182 222.650624 
L 240 214.625329 
L 243.381818 205.843354 
L 246.763636 196.394225 
L 250.145455 186.374271 
L 253.527273 175.885638 
L 256.909091 165.035251 
L 260.290909 153.933723 
L 263.672727 142.694228 
L 267.054545 131.431344 
L 270.436364 120.25989 
L 273.818182 109.293752 
L 277.2 98.644723 
L 280.581818 88.421362 
L 283.963636 78.72789 
L 287.345455 69.663127 
L 290.727273 61.319481 
L 294.109091 53.782012 
L 297.490909 47.127558 
L 300.872727 41.423957 
L 304.254545 36.729355 
L 307.636364 33.09161 
L 311.018182 30.547806 
L 314.4 29.123875 
L 317.781818 28.834335 
L 321.163636 29.682136 
L 324.545455 31.658635 
L 327.927273 34.743684 
L 331.309091 38.905833 
L 334.690909 44.10265 
L 338.072727 50.281158 
L 341.454545 57.378371 
L 344.836364 65.321937 
L 348.218182 74.030876 
L 351.6 83.416406 
L 354.981818 93.382849 
L 358.363636 103.828601 
L 361.745455 114.647176 
L 365.127273 125.728284 
L 368.509091 136.958961 
L 371.890909 148.224718 
L 375.272727 159.410706 
L 378.654545 170.402893 
L 382.036364 181.089219 
L 385.418182 191.360744 
L 388.8 201.112756 
" style="fill:none;stroke:#0000ff;stroke-linecap:round;"/>
   </g>
   <g id="line2d_35">
    <path clip-path="url(#p5e0329bc3f)" d="M 54 28.8 
L 57.381818 29.368846 
L 60.763636 31.069584 
L 64.145455 33.884877 
L 67.527273 37.786024 
L 70.909091 42.733256 
L 74.290909 48.676138 
L 77.672727 55.554088 
L 81.054545 63.296988 
L 84.436364 71.825904 
L 87.818182 81.05389 
L 91.2 90.886872 
L 94.581818 101.224609 
L 97.963636 111.961715 
L 101.345455 122.98873 
L 104.727273 134.193243 
L 108.109091 145.46103 
L 111.490909 156.677223 
L 114.872727 167.727479 
L 118.254545 178.49915 
L 121.636364 188.882423 
L 125.018182 198.771449 
L 128.4 208.065415 
L 131.781818 216.669575 
L 135.163636 224.496214 
L 138.545455 231.465546 
L 141.927273 237.506522 
L 145.309091 242.557558 
L 148.690909 246.567163 
L 152.072727 249.49446 
L 155.454545 251.309609 
L 158.836364 251.994104 
L 162.218182 251.540967 
L 165.6 249.954819 
L 168.981818 247.251828 
L 172.363636 243.459551 
L 175.745455 238.616646 
L 179.127273 232.772485 
L 182.509091 225.986645 
L 185.890909 218.328303 
L 189.272727 209.875531 
L 192.654545 200.7145 
L 196.036364 190.938601 
L 199.418182 180.647493 
L 202.8 169.946086 
L 206.181818 158.943477 
L 209.563636 147.751828 
L 212.945455 136.485232 
L 216.327273 125.258544 
L 219.709091 114.186214 
L 223.090909 103.381117 
L 226.472727 92.953405 
L 229.854545 83.00938 
L 233.236364 73.650416 
L 236.618182 64.971922 
L 240 57.06237 
L 243.381818 50.002393 
L 246.763636 43.863961 
L 250.145455 38.709654 
L 253.527273 34.592016 
L 256.909091 31.553023 
L 260.290909 29.623656 
L 263.672727 28.823584 
L 267.054545 29.160964 
L 270.436364 30.632355 
L 273.818182 33.222757 
L 277.2 36.905764 
L 280.581818 41.64383 
L 283.963636 47.388652 
L 287.345455 54.081666 
L 290.727273 61.654641 
L 294.109091 70.030375 
L 297.490909 79.123483 
L 300.872727 88.841267 
L 304.254545 99.084659 
L 307.636364 109.749235 
L 311.018182 120.726276 
L 314.4 131.903878 
L 317.781818 143.168093 
L 321.163636 154.404089 
L 324.545455 165.497322 
L 327.927273 176.334704 
L 331.309091 186.805754 
L 334.690909 196.803727 
L 338.072727 206.226699 
L 341.454545 214.97861 
L 344.836364 222.970239 
L 348.218182 230.120117 
L 351.6 236.355354 
L 354.981818 241.612388 
L 358.363636 245.837625 
L 361.745455 248.987992 
L 365.127273 251.031373 
L 368.509091 251.946937 
L 371.890909 251.725351 
L 375.272727 250.368873 
L 378.654545 247.891332 
L 382.036364 244.317984 
L 385.418182 239.685259 
L 388.8 234.040383 
" style="fill:none;stroke:#008000;stroke-dasharray:6,6;stroke-dashoffset:0;"/>
   </g>
   <g id="patch_3">
    <path d="M 54 252 
L 54 28.8 
" style="fill:none;stroke:#cccccc;stroke-linecap:square;stroke-linejoin:miter;"/>
   </g>
   <g id="patch_4">
    <path d="M 388.8 252 
L 388.8 28.8 
" style="fill:none;stroke:#cccccc;stroke-linecap:square;stroke-linejoin:miter;"/>
   </g>
   <g id="patch_5">
    <path d="M 54 252 
L 388.8 252 
" style="fill:none;stroke:#cccccc;stroke-linecap:square;stroke-linejoin:miter;"/>
   </g>
   <g id="patch_6">
    <path d="M 54 28.8 
L 388.8 28.8 
" style="fill:none;stroke:#cccccc;stroke-linecap:square;stroke-linejoin:miter;"/>
   </g>
  </g>
 </g>
 <defs>
  <clipPath id="p5e0329bc3f">
   <rect height="223.2" width="334.8" x="54" y="28.8"/>
  </clipPath>
 </defs>
</svg>
